<svg xmlns="http://www.w3.org/2000/svg" width="300" height="125" version="1.0"><defs><linearGradient id="a"><stop offset="0" stop-color="#d5d3cf"/><stop offset="1" stop-color="#f6f5f4"/></linearGradient><linearGradient id="b"><stop offset="0" stop-color="#d5d3cf"/><stop offset="1" stop-color="#949390"/></linearGradient><linearGradient id="c"><stop offset="0" stop-color="#9a9996"/><stop offset="1" stop-color="#77767b"/></linearGradient></defs><g transform="translate(0 -27)"><g fill="none" stroke="#000" stroke-width="5"><path d="M12.596 141.29l32-64m-38-26s0-13.987 12-14c9.923-.01 13.345 8.074 16 14 2.585 5.773 32 78 32 78 3.013 7.345 6.28 12 12 12 10 0 12-12 12-12" stroke-linecap="round"/><path d="M27.596 111.29s9.125 3.295 16.398 3.293c6.989-.002 15.602-3.292 15.602-3.292"/></g><path d="M108.195 141.225v-21c0-2.806 1.9-5.523 3.958-7.43 2.147-1.988 5.116-3.485 8.042-3.52 4-.05 7.805.725 7.805.725M140.13 78.766v52c0 3 1.233 5.739 4 8 3.614 2.953 10.44 3.016 14 0 3.308-2.8 4-8 4-8M175 111.075l-.056 19.288c-.009 3 1.233 5.738 4 8 3.614 2.953 10.44 3.016 14 0 3.308-2.801 4-8 4-8l.056-19.288M211.394 140.22l-.056-19.289c-.009-3 1.233-5.739 4-8 3.614-2.953 10.44-3.016 14 0 3.308 2.801 4 8 4 8l.056 19.288M247.79 110.168L248 141" fill="none" stroke="#000" stroke-width="5" stroke-linecap="round"/><circle cx="276.985" cy="125.651" r="15.413" fill="none" stroke="#000" stroke-width="4.476" stroke-linecap="round"/><circle cx="248" cy="100" r="4"/></g></svg>