<?xml version="1.0" encoding="UTF-8" standalone="no"?>
<svg
   xmlns:dc="http://purl.org/dc/elements/1.1/"
   xmlns:cc="http://creativecommons.org/ns#"
   xmlns:rdf="http://www.w3.org/1999/02/22-rdf-syntax-ns#"
   xmlns:svg="http://www.w3.org/2000/svg"
   xmlns="http://www.w3.org/2000/svg"
   xmlns:sodipodi="http://sodipodi.sourceforge.net/DTD/sodipodi-0.dtd"
   xmlns:inkscape="http://www.inkscape.org/namespaces/inkscape"
   width="300"
   height="125"
   version="1.0"
   id="svg33"
   sodipodi:docname="arlunio.svg"
   inkscape:version="0.92.5 (2060ec1f9f, 2020-04-08)">
  <metadata
     id="metadata37">
    <rdf:RDF>
      <cc:Work
         rdf:about="">
        <dc:format>image/svg+xml</dc:format>
        <dc:type
           rdf:resource="http://purl.org/dc/dcmitype/StillImage" />
      </cc:Work>
    </rdf:RDF>
  </metadata>
  <sodipodi:namedview
     pagecolor="#ffffff"
     bordercolor="#666666"
     borderopacity="1"
     objecttolerance="10"
     gridtolerance="10"
     guidetolerance="10"
     inkscape:pageopacity="0"
     inkscape:pageshadow="2"
     inkscape:window-width="1485"
     inkscape:window-height="788"
     id="namedview35"
     showgrid="false"
     inkscape:zoom="1.1566667"
     inkscape:cx="-5.6195922"
     inkscape:cy="62.500002"
     inkscape:window-x="0"
     inkscape:window-y="27"
     inkscape:window-maximized="0"
     inkscape:current-layer="g31" />
  <defs
     id="defs17">
    <linearGradient
       id="a">
      <stop
         offset="0"
         stop-color="#d5d3cf"
         id="stop2" />
      <stop
         offset="1"
         stop-color="#f6f5f4"
         id="stop4" />
    </linearGradient>
    <linearGradient
       id="b">
      <stop
         offset="0"
         stop-color="#d5d3cf"
         id="stop7" />
      <stop
         offset="1"
         stop-color="#949390"
         id="stop9" />
    </linearGradient>
    <linearGradient
       id="c">
      <stop
         offset="0"
         stop-color="#9a9996"
         id="stop12" />
      <stop
         offset="1"
         stop-color="#77767b"
         id="stop14" />
    </linearGradient>
  </defs>
  <g
     transform="translate(0 -27)"
     id="g31"
     style="stroke:#fbffff;stroke-opacity:1">
    <g
       fill="none"
       stroke="#000"
       stroke-width="5"
       id="g23"
       style="stroke:#fbffff;stroke-opacity:1">
      <path
         d="M12.596 141.29l32-64m-38-26s0-13.987 12-14c9.923-.01 13.345 8.074 16 14 2.585 5.773 32 78 32 78 3.013 7.345 6.28 12 12 12 10 0 12-12 12-12"
         stroke-linecap="round"
         id="path19"
         style="stroke:#fbffff;stroke-opacity:1" />
      <path
         d="M27.596 111.29s9.125 3.295 16.398 3.293c6.989-.002 15.602-3.292 15.602-3.292"
         id="path21"
         style="stroke:#fbffff;stroke-opacity:1" />
    </g>
    <path
       d="M108.195 141.225v-21c0-2.806 1.9-5.523 3.958-7.43 2.147-1.988 5.116-3.485 8.042-3.52 4-.05 7.805.725 7.805.725M140.13 78.766v52c0 3 1.233 5.739 4 8 3.614 2.953 10.44 3.016 14 0 3.308-2.8 4-8 4-8M175 111.075l-.056 19.288c-.009 3 1.233 5.738 4 8 3.614 2.953 10.44 3.016 14 0 3.308-2.801 4-8 4-8l.056-19.288M211.394 140.22l-.056-19.289c-.009-3 1.233-5.739 4-8 3.614-2.953 10.44-3.016 14 0 3.308 2.801 4 8 4 8l.056 19.288M247.79 110.168L248 141"
       fill="none"
       stroke="#000"
       stroke-width="5"
       stroke-linecap="round"
       id="path25"
       style="stroke:#fbffff;stroke-opacity:1" />
    <circle
       cx="276.985"
       cy="125.651"
       r="15.413"
       fill="none"
       stroke="#000"
       stroke-width="4.476"
       stroke-linecap="round"
       id="circle27"
       style="stroke:#fbffff;stroke-opacity:1" />
    <circle
       cx="248"
       cy="100"
       r="4"
       id="circle29"
       style="stroke:#fbffff;stroke-opacity:1;fill:#ffffff;fill-opacity:1" />
  </g>
</svg>
